<svg width="65" height="15" viewBox="0 0 65 15" fill="none" xmlns="http://www.w3.org/2000/svg">
<path d="M1.728 14V6.512H0.288V5.84H1.728V4.64C1.728 3.91467 1.93067 3.34933 2.336 2.944C2.752 2.528 3.32267 2.32 4.048 2.32H5.744V2.992H4.208C3.632 2.992 3.2 3.14667 2.912 3.456C2.624 3.76533 2.48 4.208 2.48 4.784V5.84H5.456V6.512H2.48V14H1.728ZM9.739 14.208C8.907 14.208 8.19233 14.0213 7.595 13.648C6.99767 13.264 6.539 12.7467 6.219 12.096C5.90967 11.4453 5.755 10.7147 5.755 9.904C5.755 9.104 5.92033 8.384 6.251 7.744C6.59233 7.09333 7.07767 6.58133 7.707 6.208C8.33633 5.83467 9.08833 5.648 9.963 5.648C10.7843 5.648 11.499 5.83467 12.107 6.208C12.715 6.57067 13.1843 7.06667 13.515 7.696C13.8563 8.31467 14.027 9.01867 14.027 9.808V14H13.275V12.032H13.227C13.0777 12.3627 12.843 12.6987 12.523 13.04C12.2137 13.3707 11.8243 13.648 11.355 13.872C10.8963 14.096 10.3577 14.208 9.739 14.208ZM9.867 13.552C10.5177 13.552 11.099 13.3973 11.611 13.088C12.123 12.768 12.523 12.3307 12.811 11.776C13.1097 11.2107 13.259 10.576 13.259 9.872C13.259 9.18933 13.1203 8.58133 12.843 8.048C12.5763 7.504 12.1923 7.07733 11.691 6.768C11.1897 6.45867 10.603 6.304 9.931 6.304C9.227 6.304 8.619 6.464 8.107 6.784C7.60567 7.104 7.21633 7.54133 6.939 8.096C6.67233 8.65067 6.539 9.28 6.539 9.984C6.539 10.6347 6.667 11.232 6.923 11.776C7.179 12.32 7.55767 12.752 8.059 13.072C8.56033 13.392 9.163 13.552 9.867 13.552ZM16.3681 14V13.328H20.1761C20.5708 13.328 20.9015 13.248 21.1681 13.088C21.4348 12.9173 21.6375 12.6987 21.7761 12.432C21.9148 12.1653 21.9841 11.888 21.9841 11.6C21.9841 11.344 21.9255 11.0987 21.8081 10.864C21.6908 10.6293 21.5095 10.4373 21.2641 10.288C21.0295 10.1387 20.7255 10.064 20.3521 10.064H18.5921C18.0695 10.064 17.6268 9.97333 17.2641 9.792C16.9015 9.61067 16.6295 9.36533 16.4481 9.056C16.2668 8.736 16.1761 8.384 16.1761 8C16.1761 7.62667 16.2615 7.27467 16.4321 6.944C16.6135 6.61333 16.8748 6.34667 17.2161 6.144C17.5575 5.94133 17.9628 5.84 18.4321 5.84H22.0961V6.512H18.5121C18.0108 6.512 17.6268 6.66133 17.3601 6.96C17.0935 7.25867 16.9601 7.59467 16.9601 7.968C16.9601 8.33067 17.0935 8.656 17.3601 8.944C17.6375 9.22133 18.0588 9.36 18.6241 9.36H20.2401C20.8161 9.36 21.2908 9.46133 21.6641 9.664C22.0375 9.856 22.3148 10.1173 22.4961 10.448C22.6881 10.7787 22.7841 11.152 22.7841 11.568C22.7841 11.9733 22.6828 12.3627 22.4801 12.736C22.2775 13.0987 21.9948 13.4027 21.6321 13.648C21.2801 13.8827 20.8535 14 20.3521 14H16.3681ZM27.407 14C26.6817 14 26.111 13.792 25.695 13.376C25.2897 12.96 25.087 12.3947 25.087 11.68V3.792H25.855V11.536C25.855 12.112 25.999 12.5547 26.287 12.864C26.575 13.1733 27.007 13.328 27.583 13.328H29.087V14H27.407ZM23.663 6.512V5.84H29.135V6.512H23.663Z" fill="black"/>
<path d="M33.4308 14.08C33.0361 14.08 32.7534 13.9947 32.5828 13.824C32.4121 13.6427 32.3268 13.3067 32.3268 12.816C32.3268 12.4853 32.3588 12.0853 32.4228 11.616C32.4868 11.1467 32.5988 10.4373 32.7588 9.488C32.7801 9.36 32.8654 8.84267 33.0148 7.936C33.1641 7.01867 33.2974 6.05867 33.4148 5.056C33.5214 4.20267 33.5748 3.56267 33.5748 3.136C33.5748 2.656 33.3988 2.416 33.0468 2.416C32.7801 2.416 32.4441 2.56 32.0388 2.848C31.6441 3.12533 31.2174 3.57333 30.7588 4.192C30.6094 4.39467 30.4441 4.496 30.2628 4.496C30.1134 4.496 29.9801 4.42667 29.8628 4.288C29.7561 4.13867 29.7027 3.97333 29.7027 3.792C29.7027 3.61067 29.7348 3.44 29.7988 3.28C29.8628 3.10933 29.9801 2.90667 30.1508 2.672C30.6734 1.95733 31.2548 1.408 31.8948 1.024C32.5348 0.629333 33.2068 0.431999 33.9108 0.431999C34.4974 0.431999 34.9348 0.613333 35.2228 0.976C35.5214 1.33867 35.6708 1.86667 35.6708 2.56C35.6708 3.17867 35.5854 4.07467 35.4148 5.248C35.9481 3.66933 36.6254 2.47467 37.4468 1.664C38.2681 0.842666 39.2334 0.431999 40.3428 0.431999C41.2174 0.431999 41.8734 0.682666 42.3108 1.184C42.7588 1.67467 42.9828 2.336 42.9828 3.168C42.9828 3.63733 42.9134 4.208 42.7748 4.88L41.7988 9.456C41.6921 9.98933 41.6388 10.448 41.6388 10.832C41.6388 11.28 41.7401 11.616 41.9428 11.84C42.1561 12.064 42.4494 12.176 42.8228 12.176C43.1748 12.176 43.5161 12.0587 43.8468 11.824C44.1881 11.5893 44.5881 11.2 45.0468 10.656C45.1748 10.5067 45.3188 10.432 45.4788 10.432C45.6174 10.432 45.7241 10.496 45.7987 10.624C45.8841 10.752 45.9268 10.928 45.9268 11.152C45.9268 11.568 45.8254 11.8987 45.6228 12.144C45.0681 12.816 44.5188 13.3067 43.9748 13.616C43.4308 13.9253 42.8601 14.08 42.2628 14.08C41.3561 14.08 40.6468 13.8133 40.1348 13.28C39.6228 12.736 39.3668 12.0107 39.3668 11.104C39.3668 10.752 39.3934 10.368 39.4468 9.952C39.5108 9.536 39.6121 9.008 39.7508 8.368L40.3908 5.44C40.4121 5.344 40.4494 5.17333 40.5028 4.928C40.5561 4.68267 40.5988 4.45333 40.6308 4.24C40.6628 4.016 40.6788 3.79733 40.6788 3.584C40.6788 3.24267 40.5828 2.97067 40.3908 2.768C40.1988 2.56533 39.9268 2.464 39.5748 2.464C38.9348 2.464 38.2948 2.80533 37.6548 3.488C37.0148 4.17067 36.4228 5.27467 35.8788 6.8C35.3348 8.31467 34.9081 10.256 34.5988 12.624C34.5241 13.168 34.4121 13.5467 34.2628 13.76C34.1241 13.9733 33.8468 14.08 33.4308 14.08ZM52.7874 9.088C52.926 9.088 53.0327 9.15733 53.1074 9.296C53.182 9.43467 53.2194 9.61067 53.2194 9.824C53.2194 10.336 53.0647 10.64 52.7554 10.736C52.1154 10.96 51.4114 11.088 50.6434 11.12C50.4407 12.016 50.0407 12.736 49.4434 13.28C48.846 13.8133 48.1687 14.08 47.4114 14.08C46.7714 14.08 46.222 13.9253 45.7634 13.616C45.3154 13.3067 44.974 12.896 44.7394 12.384C44.5047 11.872 44.3874 11.3173 44.3874 10.72C44.3874 9.90933 44.542 9.18933 44.8514 8.56C45.1607 7.92 45.5874 7.424 46.1314 7.072C46.6754 6.70933 47.278 6.528 47.9394 6.528C48.75 6.528 49.4007 6.81067 49.8914 7.376C50.3927 7.93067 50.686 8.61867 50.7714 9.44C51.2727 9.408 51.87 9.30133 52.5634 9.12C52.6487 9.09867 52.7234 9.088 52.7874 9.088ZM47.5394 12.384C47.8807 12.384 48.174 12.2453 48.4194 11.968C48.6754 11.6907 48.846 11.2907 48.9314 10.768C48.6007 10.544 48.3447 10.2507 48.1634 9.888C47.9927 9.52533 47.9074 9.14133 47.9074 8.736C47.9074 8.56533 47.9234 8.39467 47.9554 8.224H47.8754C47.4487 8.224 47.0914 8.432 46.8034 8.848C46.526 9.25333 46.3874 9.82933 46.3874 10.576C46.3874 11.1627 46.4994 11.6107 46.7234 11.92C46.958 12.2293 47.23 12.384 47.5394 12.384ZM59.3884 10.432C59.527 10.432 59.6337 10.496 59.7084 10.624C59.7937 10.752 59.8364 10.928 59.8364 11.152C59.8364 11.5787 59.735 11.9093 59.5324 12.144C59.0737 12.7093 58.5724 13.1733 58.0284 13.536C57.4844 13.8987 56.8604 14.08 56.1564 14.08C53.9804 14.08 52.8924 12.5493 52.8924 9.488C52.8924 9.01867 52.9084 8.544 52.9404 8.064H52.3164C51.9964 8.064 51.7777 8.00533 51.6604 7.888C51.5537 7.77067 51.5004 7.584 51.5004 7.328C51.5004 6.73067 51.7404 6.432 52.2204 6.432H53.1324C53.3137 5.25867 53.591 4.18667 53.9644 3.216C54.3377 2.24533 54.7857 1.472 55.3084 0.895999C55.8417 0.319999 56.4124 0.0319996 57.0204 0.0319996C57.4684 0.0319996 57.8204 0.229333 58.0764 0.624C58.3324 1.01867 58.4604 1.51467 58.4604 2.112C58.4604 3.76533 57.767 5.20533 56.3804 6.432H58.1724C58.343 6.432 58.4657 6.46933 58.5404 6.544C58.615 6.61867 58.6524 6.75733 58.6524 6.96C58.6524 7.696 58.0497 8.064 56.8444 8.064H54.8924C54.871 8.59733 54.8604 9.01333 54.8604 9.312C54.8604 10.4213 54.9884 11.2 55.2444 11.648C55.511 12.096 55.927 12.32 56.4924 12.32C56.951 12.32 57.3564 12.1813 57.7084 11.904C58.0604 11.6267 58.4764 11.2107 58.9564 10.656C59.0844 10.5067 59.2284 10.432 59.3884 10.432ZM56.5884 1.568C56.4284 1.568 56.247 1.77067 56.0444 2.176C55.8524 2.57067 55.6657 3.12533 55.4844 3.84C55.3137 4.544 55.1697 5.328 55.0524 6.192C55.6817 5.648 56.151 5.04 56.4604 4.368C56.7804 3.68533 56.9404 3.06667 56.9404 2.512C56.9404 1.88267 56.823 1.568 56.5884 1.568ZM64.2616 10.912C64.4003 10.912 64.507 10.976 64.5816 11.104C64.667 11.232 64.7096 11.408 64.7096 11.632C64.7096 12.016 64.619 12.3467 64.4376 12.624C64.139 13.0827 63.7443 13.44 63.2536 13.696C62.7736 13.952 62.1976 14.08 61.5256 14.08C60.5016 14.08 59.707 13.776 59.1416 13.168C58.5763 12.5493 58.2936 11.7173 58.2936 10.672C58.2936 9.936 58.4483 9.25333 58.7576 8.624C59.067 7.984 59.4936 7.47733 60.0376 7.104C60.5923 6.73067 61.2163 6.544 61.9096 6.544C62.5283 6.544 63.0243 6.73067 63.3976 7.104C63.771 7.46667 63.9576 7.96267 63.9576 8.592C63.9576 9.328 63.691 9.96267 63.1576 10.496C62.635 11.0187 61.739 11.4347 60.4696 11.744C60.7256 12.2347 61.1576 12.48 61.7656 12.48C62.203 12.48 62.5603 12.3787 62.8376 12.176C63.1256 11.9733 63.4563 11.632 63.8296 11.152C63.9576 10.992 64.1016 10.912 64.2616 10.912ZM61.6376 8.112C61.243 8.112 60.907 8.34133 60.6296 8.8C60.363 9.25867 60.2296 9.81333 60.2296 10.464V10.496C60.859 10.3467 61.355 10.1227 61.7176 9.824C62.0803 9.52533 62.2616 9.17867 62.2616 8.784C62.2616 8.58133 62.203 8.42133 62.0856 8.304C61.979 8.176 61.8296 8.112 61.6376 8.112Z" fill="#C74944"/>
</svg>
