<svg xmlns="http://www.w3.org/2000/svg" version="1.1" xmlns:xlink="http://www.w3.org/1999/xlink" xmlns:svgjs="http://svgjs.com/svgjs" width="75" height="75"><svg xmlns="http://www.w3.org/2000/svg" width="75" height="75" fill="none" viewBox="0 0 75 75">
  <rect width="75" height="75" fill="#fff" rx="37.5"></rect>
  <path fill="#000" d="M6.728 44v-7.488h-1.44v-.672h1.44v-1.2c0-.725.203-1.29.608-1.696.416-.416.987-.624 1.712-.624h1.696v.672H9.208c-.576 0-1.008.155-1.296.464-.288.31-.432.752-.432 1.328v1.056h2.976v.672H7.48V44h-.752Zm8.011.208c-.832 0-1.547-.187-2.144-.56a3.802 3.802 0 0 1-1.376-1.552c-.31-.65-.464-1.381-.464-2.192 0-.8.165-1.52.496-2.16a3.809 3.809 0 0 1 1.456-1.536c.63-.373 1.381-.56 2.256-.56.821 0 1.536.187 2.144.56a3.709 3.709 0 0 1 1.408 1.488c.341.619.512 1.323.512 2.112V44h-.752v-1.968h-.048c-.15.33-.384.667-.704 1.008-.31.33-.699.608-1.168.832-.459.224-.997.336-1.616.336Zm.128-.656a3.31 3.31 0 0 0 1.744-.464c.512-.32.912-.757 1.2-1.312.299-.565.448-1.2.448-1.904 0-.683-.139-1.29-.416-1.824a3.045 3.045 0 0 0-1.152-1.28c-.501-.31-1.088-.464-1.76-.464-.704 0-1.312.16-1.824.48a3.24 3.24 0 0 0-1.168 1.312c-.267.555-.4 1.184-.4 1.888 0 .65.128 1.248.384 1.792s.635.976 1.136 1.296c.501.32 1.104.48 1.808.48Zm6.501.448v-.672h3.808c.395 0 .726-.08.992-.24.267-.17.47-.39.608-.656a1.78 1.78 0 0 0 .208-.832 1.63 1.63 0 0 0-.176-.736 1.406 1.406 0 0 0-.544-.576c-.235-.15-.538-.224-.912-.224h-1.76c-.522 0-.965-.09-1.328-.272a1.899 1.899 0 0 1-.816-.736A2.105 2.105 0 0 1 21.176 38c0-.373.086-.725.256-1.056a2.09 2.09 0 0 1 .784-.8c.341-.203.747-.304 1.216-.304h3.664v.672h-3.584c-.501 0-.885.15-1.152.448-.267.299-.4.635-.4 1.008 0 .363.133.688.4.976.277.277.699.416 1.264.416h1.616c.576 0 1.05.101 1.424.304.373.192.65.453.832.784.192.33.288.704.288 1.12 0 .405-.101.795-.304 1.168a2.658 2.658 0 0 1-.848.912c-.352.235-.779.352-1.28.352h-3.984Zm11.039 0c-.725 0-1.296-.208-1.712-.624-.405-.416-.608-.981-.608-1.696v-7.888h.768v7.744c0 .576.144 1.019.432 1.328.288.31.72.464 1.296.464h1.504V44h-1.68Zm-3.744-7.488v-.672h5.472v.672h-5.472Z"></path>
  <path fill="#C74944" d="M38.43 44.08c-.394 0-.677-.085-.847-.256-.17-.181-.256-.517-.256-1.008 0-.33.032-.73.096-1.2s.176-1.179.336-2.128l.256-1.552c.15-.917.282-1.877.4-2.88.106-.853.16-1.493.16-1.92 0-.48-.176-.72-.528-.72-.267 0-.603.144-1.008.432-.395.277-.822.725-1.28 1.344-.15.203-.315.304-.496.304-.15 0-.283-.07-.4-.208a.834.834 0 0 1-.16-.496c0-.181.032-.352.096-.512.064-.17.181-.373.352-.608.522-.715 1.104-1.264 1.744-1.648a3.782 3.782 0 0 1 2.016-.592c.586 0 1.024.181 1.312.544.298.363.448.89.448 1.584 0 .619-.086 1.515-.256 2.688.533-1.579 1.21-2.773 2.032-3.584.821-.821 1.786-1.232 2.896-1.232.874 0 1.53.25 1.968.752.448.49.672 1.152.672 1.984 0 .47-.07 1.04-.208 1.712l-.976 4.576a7.17 7.17 0 0 0-.16 1.376c0 .448.101.784.304 1.008.213.224.506.336.88.336.352 0 .693-.117 1.024-.352.341-.235.741-.624 1.2-1.168.128-.15.272-.224.432-.224.138 0 .245.064.32.192.085.128.128.304.128.528 0 .416-.102.747-.304.992-.555.672-1.104 1.163-1.648 1.472a3.414 3.414 0 0 1-1.712.464c-.907 0-1.616-.267-2.128-.8-.512-.544-.768-1.27-.768-2.176 0-.352.026-.736.08-1.152.064-.416.165-.944.304-1.584l.64-2.928.112-.512c.053-.245.096-.475.128-.688a4.64 4.64 0 0 0 .048-.656c0-.341-.096-.613-.288-.816-.192-.203-.464-.304-.816-.304-.64 0-1.28.341-1.92 1.024-.64.683-1.232 1.787-1.776 3.312-.544 1.515-.97 3.456-1.28 5.824-.075.544-.187.923-.336 1.136-.139.213-.416.32-.832.32Zm19.357-4.992c.139 0 .246.07.32.208.075.139.112.315.112.528 0 .512-.154.816-.464.912a7.284 7.284 0 0 1-2.112.384c-.202.896-.602 1.616-1.2 2.16-.597.533-1.274.8-2.032.8-.64 0-1.189-.155-1.648-.464a2.975 2.975 0 0 1-1.024-1.232 3.945 3.945 0 0 1-.352-1.664c0-.81.155-1.53.464-2.16.31-.64.736-1.136 1.28-1.488a3.19 3.19 0 0 1 1.808-.544c.811 0 1.462.283 1.952.848.502.555.795 1.243.88 2.064.502-.032 1.099-.139 1.792-.32a.942.942 0 0 1 .224-.032Zm-5.248 3.296c.342 0 .635-.139.88-.416.256-.277.427-.677.512-1.2a2.27 2.27 0 0 1-.768-.88 2.672 2.672 0 0 1-.256-1.152c0-.17.016-.341.048-.512h-.08c-.426 0-.784.208-1.072.624-.277.405-.416.981-.416 1.728 0 .587.112 1.035.336 1.344.235.31.507.464.816.464Zm11.85-1.952c.138 0 .245.064.32.192.085.128.127.304.127.528 0 .427-.101.757-.304.992a6.809 6.809 0 0 1-1.504 1.392c-.544.363-1.168.544-1.872.544-2.176 0-3.264-1.53-3.264-4.592 0-.47.016-.944.048-1.424h-.624c-.32 0-.538-.059-.656-.176-.106-.117-.16-.304-.16-.56 0-.597.24-.896.72-.896h.912c.182-1.173.459-2.245.832-3.216.374-.97.822-1.744 1.344-2.32.534-.576 1.104-.864 1.712-.864.448 0 .8.197 1.056.592.256.395.384.89.384 1.488 0 1.653-.693 3.093-2.08 4.32h1.792c.171 0 .294.037.368.112.075.075.112.213.112.416 0 .736-.602 1.104-1.808 1.104h-1.952c-.021.533-.032.95-.032 1.248 0 1.11.128 1.888.384 2.336.267.448.683.672 1.248.672a1.91 1.91 0 0 0 1.216-.416c.352-.277.768-.693 1.248-1.248.128-.15.272-.224.432-.224Zm-2.8-8.864c-.16 0-.342.203-.545.608-.192.395-.378.95-.56 1.664-.17.704-.314 1.488-.432 2.352.63-.544 1.099-1.152 1.408-1.824.32-.683.48-1.301.48-1.856 0-.63-.117-.944-.352-.944Zm7.673 9.344c.138 0 .245.064.32.192.085.128.128.304.128.528 0 .384-.091.715-.272.992a3.098 3.098 0 0 1-1.184 1.072c-.48.256-1.056.384-1.728.384-1.024 0-1.819-.304-2.384-.912-.566-.619-.848-1.45-.848-2.496 0-.736.154-1.419.464-2.048a3.807 3.807 0 0 1 1.28-1.52 3.277 3.277 0 0 1 1.872-.56c.618 0 1.114.187 1.488.56.373.363.56.859.56 1.488 0 .736-.267 1.37-.8 1.904-.523.523-1.419.939-2.688 1.248.256.49.688.736 1.296.736.437 0 .794-.101 1.072-.304.288-.203.618-.544.992-1.024.128-.16.272-.24.432-.24Zm-2.624-2.8c-.395 0-.731.23-1.008.688-.267.459-.4 1.013-.4 1.664v.032c.629-.15 1.125-.373 1.488-.672.362-.299.544-.645.544-1.04 0-.203-.059-.363-.176-.48a.55.55 0 0 0-.448-.192Z"></path>
</svg><style>@media (prefers-color-scheme: light) { :root { filter: none; } }
</style></svg>