<svg width="300" height="65" viewBox="0 0 300 65" fill="none" xmlns="http://www.w3.org/2000/svg">
<path d="M28.2245 60V30.048H22.4645V27.36H28.2245V22.56C28.2245 19.6587 29.0352 17.3973 30.6565 15.776C32.3205 14.112 34.6032 13.28 37.5045 13.28H44.2885V15.968H38.1445C35.8405 15.968 34.1125 16.5867 32.9605 17.824C31.8085 19.0613 31.2325 20.832 31.2325 23.136V27.36H43.1365V30.048H31.2325V60H28.2245ZM60.2685 60.832C56.9405 60.832 54.0818 60.0853 51.6925 58.592C49.3032 57.056 47.4685 54.9867 46.1885 52.384C44.9512 49.7813 44.3325 46.8587 44.3325 43.616C44.3325 40.416 44.9938 37.536 46.3165 34.976C47.6818 32.3733 49.6232 30.3253 52.1405 28.832C54.6578 27.3387 57.6658 26.592 61.1645 26.592C64.4498 26.592 67.3085 27.3387 69.7405 28.832C72.1725 30.2827 74.0498 32.2667 75.3725 34.784C76.7378 37.2587 77.4205 40.0747 77.4205 43.232V60H74.4125V52.128H74.2205C73.6232 53.4507 72.6845 54.7947 71.4045 56.16C70.1672 57.4827 68.6098 58.592 66.7325 59.488C64.8978 60.384 62.7432 60.832 60.2685 60.832ZM60.7805 58.208C63.3832 58.208 65.7085 57.5893 67.7565 56.352C69.8045 55.072 71.4045 53.3227 72.5565 51.104C73.7512 48.8427 74.3485 46.304 74.3485 43.488C74.3485 40.7573 73.7938 38.3253 72.6845 36.192C71.6178 34.016 70.0818 32.3093 68.0765 31.072C66.0712 29.8347 63.7245 29.216 61.0365 29.216C58.2205 29.216 55.7885 29.856 53.7405 31.136C51.7352 32.416 50.1778 34.1653 49.0685 36.384C48.0018 38.6027 47.4685 41.12 47.4685 43.936C47.4685 46.5387 47.9805 48.928 49.0045 51.104C50.0285 53.28 51.5432 55.008 53.5485 56.288C55.5538 57.568 57.9645 58.208 60.7805 58.208ZM86.785 60V57.312H102.017C103.596 57.312 104.918 56.992 105.985 56.352C107.052 55.6693 107.862 54.7947 108.417 53.728C108.972 52.6613 109.249 51.552 109.249 50.4C109.249 49.376 109.014 48.3947 108.545 47.456C108.076 46.5173 107.35 45.7493 106.369 45.152C105.43 44.5547 104.214 44.256 102.721 44.256H95.681C93.5903 44.256 91.8197 43.8933 90.369 43.168C88.9183 42.4427 87.8303 41.4613 87.105 40.224C86.3797 38.944 86.017 37.536 86.017 36C86.017 34.5067 86.3583 33.0987 87.041 31.776C87.7663 30.4533 88.8117 29.3867 90.177 28.576C91.5423 27.7653 93.1637 27.36 95.041 27.36H109.697V30.048H95.361C93.3557 30.048 91.8197 30.6453 90.753 31.84C89.6863 33.0347 89.153 34.3787 89.153 35.872C89.153 37.3227 89.6863 38.624 90.753 39.776C91.8623 40.8853 93.5477 41.44 95.809 41.44H102.273C104.577 41.44 106.476 41.8453 107.969 42.656C109.462 43.424 110.572 44.4693 111.297 45.792C112.065 47.1147 112.449 48.608 112.449 50.272C112.449 51.8933 112.044 53.4507 111.233 54.944C110.422 56.3947 109.292 57.6107 107.841 58.592C106.433 59.5307 104.726 60 102.721 60H86.785ZM130.941 60C128.039 60 125.757 59.168 124.093 57.504C122.471 55.84 121.661 53.5787 121.661 50.72V19.168H124.733V50.144C124.733 52.448 125.309 54.2187 126.461 55.456C127.613 56.6933 129.341 57.312 131.645 57.312H137.661V60H130.941ZM115.965 30.048V27.36H137.853V30.048H115.965Z" fill="black"/>
<path d="M155.036 60.32C153.457 60.32 152.326 59.9787 151.644 59.296C150.961 58.5707 150.62 57.2267 150.62 55.264C150.62 53.9413 150.748 52.3413 151.004 50.464C151.26 48.5867 151.708 45.7493 152.348 41.952C152.433 41.44 152.774 39.3707 153.372 35.744C153.969 32.0747 154.502 28.2347 154.972 24.224C155.398 20.8107 155.612 18.2507 155.612 16.544C155.612 14.624 154.908 13.664 153.5 13.664C152.433 13.664 151.089 14.24 149.468 15.392C147.889 16.5013 146.182 18.2933 144.348 20.768C143.75 21.5787 143.089 21.984 142.364 21.984C141.766 21.984 141.233 21.7067 140.764 21.152C140.337 20.5547 140.123 19.8933 140.123 19.168C140.123 18.4427 140.252 17.76 140.508 17.12C140.764 16.4373 141.233 15.6267 141.916 14.688C144.006 11.8293 146.332 9.632 148.892 8.096C151.452 6.51733 154.14 5.728 156.956 5.728C159.302 5.728 161.052 6.45333 162.204 7.904C163.398 9.35467 163.996 11.4667 163.996 14.24C163.996 16.7147 163.654 20.2987 162.972 24.992C165.105 18.6773 167.814 13.8987 171.1 10.656C174.385 7.37066 178.246 5.728 182.684 5.728C186.182 5.728 188.806 6.73066 190.556 8.736C192.348 10.6987 193.244 13.344 193.244 16.672C193.244 18.5493 192.966 20.832 192.412 23.52L188.508 41.824C188.081 43.9573 187.868 45.792 187.868 47.328C187.868 49.12 188.273 50.464 189.084 51.36C189.937 52.256 191.11 52.704 192.604 52.704C194.012 52.704 195.377 52.2347 196.7 51.296C198.065 50.3573 199.665 48.8 201.5 46.624C202.012 46.0267 202.588 45.728 203.228 45.728C203.782 45.728 204.209 45.984 204.507 46.496C204.849 47.008 205.02 47.712 205.02 48.608C205.02 50.272 204.614 51.5947 203.804 52.576C201.585 55.264 199.388 57.2267 197.212 58.464C195.036 59.7013 192.753 60.32 190.364 60.32C186.737 60.32 183.9 59.2533 181.852 57.12C179.804 54.944 178.78 52.0427 178.78 48.416C178.78 47.008 178.886 45.472 179.1 43.808C179.356 42.144 179.761 40.032 180.316 37.472L182.876 25.76C182.961 25.376 183.11 24.6933 183.324 23.712C183.537 22.7307 183.708 21.8133 183.836 20.96C183.964 20.064 184.028 19.1893 184.028 18.336C184.028 16.9707 183.644 15.8827 182.876 15.072C182.108 14.2613 181.02 13.856 179.612 13.856C177.052 13.856 174.492 15.2213 171.932 17.952C169.372 20.6827 167.004 25.0987 164.828 31.2C162.652 37.2587 160.945 45.024 159.708 54.496C159.409 56.672 158.961 58.1867 158.364 59.04C157.809 59.8933 156.7 60.32 155.036 60.32ZM232.462 40.352C233.017 40.352 233.443 40.6293 233.742 41.184C234.041 41.7387 234.19 42.4427 234.19 43.296C234.19 45.344 233.571 46.56 232.334 46.944C229.774 47.84 226.958 48.352 223.886 48.48C223.075 52.064 221.475 54.944 219.086 57.12C216.697 59.2533 213.987 60.32 210.958 60.32C208.398 60.32 206.201 59.7013 204.366 58.464C202.574 57.2267 201.209 55.584 200.27 53.536C199.331 51.488 198.862 49.2693 198.862 46.88C198.862 43.6373 199.481 40.7573 200.718 38.24C201.955 35.68 203.662 33.696 205.838 32.288C208.014 30.8373 210.425 30.112 213.07 30.112C216.313 30.112 218.915 31.2427 220.878 33.504C222.883 35.7227 224.057 38.4747 224.398 41.76C226.403 41.632 228.793 41.2053 231.566 40.48C231.907 40.3947 232.206 40.352 232.462 40.352ZM211.47 53.536C212.835 53.536 214.009 52.9813 214.99 51.872C216.014 50.7627 216.697 49.1627 217.038 47.072C215.715 46.176 214.691 45.0027 213.966 43.552C213.283 42.1013 212.942 40.5653 212.942 38.944C212.942 38.2613 213.006 37.5787 213.134 36.896H212.814C211.107 36.896 209.678 37.728 208.526 39.392C207.417 41.0133 206.862 43.3173 206.862 46.304C206.862 48.6507 207.31 50.4427 208.206 51.68C209.145 52.9173 210.233 53.536 211.47 53.536ZM258.866 45.728C259.421 45.728 259.847 45.984 260.146 46.496C260.487 47.008 260.658 47.712 260.658 48.608C260.658 50.3147 260.253 51.6373 259.442 52.576C257.607 54.8373 255.602 56.6933 253.426 58.144C251.25 59.5947 248.754 60.32 245.938 60.32C237.234 60.32 232.882 54.1973 232.882 41.952C232.882 40.0747 232.946 38.176 233.074 36.256H230.578C229.298 36.256 228.423 36.0213 227.954 35.552C227.527 35.0827 227.314 34.336 227.314 33.312C227.314 30.9227 228.274 29.728 230.194 29.728H233.842C234.567 25.0347 235.677 20.7467 237.17 16.864C238.663 12.9813 240.455 9.888 242.546 7.584C244.679 5.28 246.962 4.128 249.394 4.128C251.186 4.128 252.594 4.91733 253.618 6.496C254.642 8.07467 255.154 10.0587 255.154 12.448C255.154 19.0613 252.381 24.8213 246.834 29.728H254.002C254.685 29.728 255.175 29.8773 255.474 30.176C255.773 30.4747 255.922 31.0293 255.922 31.84C255.922 34.784 253.511 36.256 248.69 36.256H240.882C240.797 38.3893 240.754 40.0533 240.754 41.248C240.754 45.6853 241.266 48.8 242.29 50.592C243.357 52.384 245.021 53.28 247.282 53.28C249.117 53.28 250.738 52.7253 252.146 51.616C253.554 50.5067 255.218 48.8427 257.138 46.624C257.65 46.0267 258.226 45.728 258.866 45.728ZM247.666 10.272C247.026 10.272 246.301 11.0827 245.49 12.704C244.722 14.2827 243.975 16.5013 243.25 19.36C242.567 22.176 241.991 25.312 241.522 28.768C244.039 26.592 245.917 24.16 247.154 21.472C248.434 18.7413 249.074 16.2667 249.074 14.048C249.074 11.5307 248.605 10.272 247.666 10.272ZM278.359 47.648C278.914 47.648 279.34 47.904 279.639 48.416C279.98 48.928 280.151 49.632 280.151 50.528C280.151 52.064 279.788 53.3867 279.063 54.496C277.868 56.3307 276.29 57.76 274.327 58.784C272.407 59.808 270.103 60.32 267.415 60.32C263.319 60.32 260.14 59.104 257.879 56.672C255.618 54.1973 254.487 50.8693 254.487 46.688C254.487 43.744 255.106 41.0133 256.343 38.496C257.58 35.936 259.287 33.9093 261.463 32.416C263.682 30.9227 266.178 30.176 268.951 30.176C271.426 30.176 273.41 30.9227 274.903 32.416C276.396 33.8667 277.143 35.8507 277.143 38.368C277.143 41.312 276.076 43.8507 273.943 45.984C271.852 48.0747 268.268 49.7387 263.191 50.976C264.215 52.9387 265.943 53.92 268.375 53.92C270.124 53.92 271.554 53.5147 272.663 52.704C273.815 51.8933 275.138 50.528 276.631 48.608C277.143 47.968 277.719 47.648 278.359 47.648ZM267.863 36.448C266.284 36.448 264.94 37.3653 263.831 39.2C262.764 41.0347 262.231 43.2533 262.231 45.856V45.984C264.748 45.3867 266.732 44.4907 268.183 43.296C269.634 42.1013 270.359 40.7147 270.359 39.136C270.359 38.3253 270.124 37.6853 269.655 37.216C269.228 36.704 268.631 36.448 267.863 36.448Z" fill="#C74944"/>
</svg>
