<svg width="14" height="14" viewBox="0 0 14 14" fill="none" xmlns="http://www.w3.org/2000/svg">
<path d="M6.98047 0.742676C3.54297 0.742676 0.730469 3.55518 0.730469 6.99268C0.730469 10.4302 3.54297 13.2427 6.98047 13.2427C8.69922 13.2427 10.293 12.5708 11.418 11.4302L10.293 10.3052C9.44922 11.1489 8.27734 11.6802 6.96484 11.6802C4.37109 11.6802 2.27734 9.58643 2.27734 6.99268C2.27734 4.39893 4.37109 2.30518 6.96484 2.30518C8.26172 2.30518 9.38672 2.86768 10.2305 3.72705L8.52734 5.43018H13.2148V0.742676L11.3555 2.60205C10.2305 1.47705 8.68359 0.742676 6.96484 0.742676H6.98047Z" fill="#A6A4A4"/>
</svg>
