<svg width="11" height="13" viewBox="0 0 11 13" fill="none" xmlns="http://www.w3.org/2000/svg">
<path d="M4.6875 0C3.82812 0 3.125 0.703125 3.125 1.5625H1.5625C0.703125 1.5625 0 2.26562 0 3.125H10.9375C10.9375 2.26562 10.2344 1.5625 9.375 1.5625H7.8125C7.8125 0.703125 7.10938 0 6.25 0H4.6875ZM1.5625 4.6875V12.2031C1.5625 12.375 1.6875 12.5 1.85938 12.5H9.09375C9.26562 12.5 9.39062 12.375 9.39062 12.2031V4.6875H7.82813V10.1562C7.82813 10.5938 7.48438 10.9375 7.04688 10.9375C6.60938 10.9375 6.26563 10.5938 6.26563 10.1562V4.6875H4.70312V10.1562C4.70312 10.5938 4.35938 10.9375 3.92188 10.9375C3.48438 10.9375 3.14062 10.5938 3.14062 10.1562V4.6875H1.57812H1.5625Z" fill="#A6A4A4"/>
</svg>
