<svg width="26" height="29" viewBox="0 0 26 29" fill="none" xmlns="http://www.w3.org/2000/svg">
<path d="M10.9018 0C8.9375 0 7.33036 1.60714 7.33036 3.57143H3.75893C1.79464 3.57143 0.1875 5.17857 0.1875 7.14286H25.1875C25.1875 5.17857 23.5804 3.57143 21.6161 3.57143H18.0446C18.0446 1.60714 16.4375 0 14.4732 0H10.9018ZM3.75893 10.7143V27.8929C3.75893 28.2857 4.04464 28.5714 4.4375 28.5714H20.9732C21.3661 28.5714 21.6518 28.2857 21.6518 27.8929V10.7143H18.0804V23.2143C18.0804 24.2143 17.2946 25 16.2946 25C15.2946 25 14.5089 24.2143 14.5089 23.2143V10.7143H10.9375V23.2143C10.9375 24.2143 10.1518 25 9.15179 25C8.15179 25 7.36607 24.2143 7.36607 23.2143V10.7143H3.79464H3.75893Z" fill="#C74944"/>
</svg>
